<?xml version="1.0" standalone="no"?>
<!DOCTYPE svg PUBLIC "-//W3C//DTD SVG 1.1//EN" "http://www.w3.org/Graphics/SVG/1.1/DTD/svg11.dtd" >
<!--
2014-2-20: Created.
-->
<svg xmlns="http://www.w3.org/2000/svg">
<metadata>
Created by FontForge 20120731 at Thu Feb 20 10:44:58 2014
 By Jesse Gortarez
Created by Jesse Gortarez with FontForge 2.0 (http://fontforge.sf.net)
</metadata>
<defs>
<font id="Lookout Dingbats (Privacy)" horiz-adv-x="351" >
  <font-face 
    font-family="Lookout Dingbats (Privacy)"
    font-weight="500"
    font-stretch="normal"
    units-per-em="512"
    panose-1="2 0 6 3 0 0 0 0 0 0"
    ascent="448"
    descent="-64"
    bbox="-0.75 7 506 377"
    underline-thickness="25.6"
    underline-position="-51.2"
    unicode-range="U+E00C-E0CD"
  />
    <missing-glyph />
    <glyph glyph-name="uniE00C" unicode="&#xe00c;" horiz-adv-x="242" 
d="M242 246c0 -21 -6 -41 -15 -59v0l-3 -4v0l-51 -84l-48 -79c-3 -5 -7 -5 -10 0l-48 79l-53 88h1c-10 18 -15 38 -15 59c0 67 54 122 121 122s121 -55 121 -122zM162 221c4 10 6 15 6 24c0 26 -21 48 -47 48s-48 -22 -48 -48c0 -8 2 -14 6 -24h4c-2 0 -3 0 -2 -1
c8 -13 23 -22 40 -22s31 8 40 21c1 2 -1 2 -3 2h4z" />
    <glyph glyph-name="uniE05F" unicode="&#xe05f;" horiz-adv-x="255" 
d="M70 196c-21 17 -35 42 -35 71c0 50 42 91 92 91s91 -41 91 -91c0 -28 -13 -53 -33 -70c-2 7 -3 13 -5 19c13 13 20 31 20 51c0 41 -32 74 -73 74s-74 -33 -74 -74c0 -21 8 -39 22 -52c-2 -6 -3 -13 -5 -19zM164 184c17 -52 45 -117 91 -158v0h-41c-10 11 -18 22 -26 35
h-120c-8 -12 -17 -24 -27 -35h-41v0c45 41 74 105 91 157c0 1 1 2 1 3c5 17 9 32 12 45c-12 7 -20 21 -20 36c0 24 19 43 43 43s43 -20 43 -43c0 -14 -8 -27 -19 -35c2 -9 5 -20 8 -31c2 -5 3 -11 5 -17zM127 203c-5 -18 -10 -37 -18 -58h37c-8 21 -14 40 -19 58zM85 91h86
l-12 24h-63c-4 -8 -7 -16 -11 -24z" />
    <glyph glyph-name="uniE05E" unicode="&#xe05e;" horiz-adv-x="324" 
d="M126 354c11 0 21 -9 21 -20v-107c0 -11 -10 -20 -21 -20h-106c-11 0 -20 9 -20 20v107c0 11 9 20 20 20h106zM303 354c11 0 21 -9 21 -20v-107c0 -11 -10 -20 -21 -20h-106c-11 0 -20 9 -20 20v107c0 11 9 20 20 20h106zM126 177c11 0 21 -9 21 -20v-107
c0 -11 -10 -20 -21 -20h-106c-11 0 -20 9 -20 20v107c0 11 9 20 20 20h106zM303 177c11 0 21 -9 21 -20v-107c0 -11 -10 -20 -21 -20h-106c-11 0 -20 9 -20 20v107c0 11 9 20 20 20h106z" />
    <glyph glyph-name="uniE0BA" unicode="&#xe0ba;" horiz-adv-x="407" 
d="M275 324v-58h-148v58c0 29 24 53 53 53h42c29 0 53 -24 53 -53zM127 60v58h148v-58c0 -29 -24 -53 -53 -53h-42c-29 0 -53 24 -53 53zM53 266h74v-148h-74c-29 0 -53 24 -53 53v42c0 29 24 53 53 53zM354 266c29 0 53 -24 53 -53v-42c0 -29 -24 -53 -53 -53h-79v148h79z
M161 241c7 0 12 -5 12 -12s-5 -12 -12 -12s-13 5 -13 12s6 12 13 12zM245 241c7 0 13 -5 13 -12s-6 -12 -13 -12s-12 5 -12 12s5 12 12 12zM161 167c7 0 12 -5 12 -12s-5 -13 -12 -13s-13 6 -13 13s6 12 13 12zM245 167c7 0 13 -5 13 -12s-6 -13 -13 -13s-12 6 -12 13
s5 12 12 12zM203 204c7 0 12 -5 12 -12s-5 -12 -12 -12s-13 5 -13 12s6 12 13 12z" />
    <glyph glyph-name="uniE0B9" unicode="&#xe0b9;" horiz-adv-x="299" 
d="M0 31v28h299v-28h-299zM279 284h20v-29h-299v29h36c14 39 62 71 121 71s108 -32 122 -71zM0 222v20h299v-20h-20v-129h20v-24h-299v24h28v129h-28zM178 222v-129h44v129h-44zM83 222v-129h43v129h-43z" />
    <glyph glyph-name="uniE0AE" unicode="&#xe0ae;" horiz-adv-x="418" 
d="M0 348h418v-312h-418v312zM385 69v246h-349v-246h349zM95 140l-13 13l60 61c-4 5 -7 12 -7 19c0 17 15 31 32 31s31 -14 31 -31c0 -6 -1 -11 -4 -16l42 -42c5 2 10 4 15 4s10 -2 14 -4l59 61l13 -12l-59 -61c3 -5 5 -10 5 -16c0 -17 -15 -31 -32 -31s-31 14 -31 31
c0 5 2 11 4 15l-44 42c-4 -2 -9 -3 -14 -3c-4 0 -7 1 -10 2z" />
    <glyph glyph-name="uniE0C8" unicode="&#xe0c8;" horiz-adv-x="450" 
d="M434 265c7 0 16 -2 16 -10v-148c0 -8 -9 -19 -16 -19h-80c-1 0 0 -40 19 -53c0 0 -67 11 -83 53h-81c-7 0 -14 11 -14 19v14l6 9h87c18 0 35 17 35 36v99h111zM306 166c0 -9 -9 -19 -18 -19h-98c-19 -51 -100 -62 -100 -62c23 16 24 45 23 62h-98c-9 0 -15 10 -15 19v172
c0 9 6 11 15 11h273c9 0 18 -2 18 -11v-172zM76 233c10 0 17 8 17 17s-7 17 -17 17s-17 -8 -17 -17s7 -17 17 -17zM153 233c9 0 17 8 17 17s-7 17 -17 17s-18 -8 -18 -17s8 -17 18 -17zM229 233c10 0 17 8 17 17s-7 17 -17 17s-17 -8 -17 -17s7 -17 17 -17z" />
    <glyph glyph-name="uniE0B7" unicode="&#xe0b7;" horiz-adv-x="371" 
d="M50 374h321l-371 -364v322c0 25 25 42 50 42z" />
    <glyph glyph-name="uniE0B6" unicode="&#xe0b6;" horiz-adv-x="419" 
d="M371 331c26 0 48 -22 48 -48v-183c0 -26 -22 -47 -48 -47h-324c-26 0 -47 21 -47 47v183c0 26 21 48 47 48h324zM390 110v87h-362v-87c0 -16 14 -28 29 -28h305c16 0 28 13 28 28zM390 263v0v11c0 16 -13 28 -28 28h-305c-16 0 -29 -13 -29 -28v-11h362z" />
    <glyph glyph-name="uniE0B0" unicode="&#xe0b0;" horiz-adv-x="305" 
d="M305 275c6 -74 -56 -154 -55 -154l-18 -106c0 -4 -23 -8 -51 -8c-29 0 -62 4 -62 8l-8 68h-52c-28 0 -25 21 -25 27s-9 45 -9 45s0 -1 -15 4s-9 13 -9 13l29 62c-1 13 -1 24 0 34v3c0 58 61 106 137 106c54 0 102 -24 124 -59c4 -4 7 -11 10 -22v0c2 -7 4 -14 4 -21z" />
    <glyph glyph-name="uniE0AD" unicode="&#xe0ad;" horiz-adv-x="389" 
d="M349 124c23 -4 41 -24 40 -47c0 -26 -21 -47 -47 -47s-47 21 -47 47c0 22 14 41 35 46v55h-126v-54c23 -4 40 -23 40 -46c0 -26 -21 -48 -47 -48s-48 22 -48 48c0 22 13 40 34 45v55h-123v-55c21 -5 35 -23 35 -45c0 -26 -21 -48 -47 -48s-48 22 -48 48c0 23 16 42 39 46
v72h144v64c-21 4 -36 24 -36 47c0 26 22 47 48 47s48 -21 48 -47c0 -23 -18 -42 -39 -47v-64h145v-72z" />
    <glyph glyph-name="uniE08F" unicode="&#xe08f;" horiz-adv-x="435" 
d="M333 340l102 -96v-200h-435v296h333zM402 77v0v153h-82v77h-287v-230h369zM222 177v24h126v-24h-126zM224 135v23h85v-23h-85zM173 140c7 -5 7 -9 7 -9v-10h-95v10s1 4 8 9c2 1 3 2 5 3c4 2 7 4 12 6l5 6l4 1v4c-1 2 -1 3 -2 5c-9 7 -16 22 -17 23v0s-5 7 -5 11
c0 3 -1 11 3 12c-3 12 -7 45 35 45s37 -33 34 -45c4 -1 4 -9 4 -12s-6 -12 -6 -12v0c-1 -1 -8 -16 -17 -23c-1 -1 -1 -3 -2 -4v-4l5 -1l4 -6c5 -2 9 -4 12 -6z" />
    <glyph glyph-name="uniE0CD" unicode="&#xe0cd;" 
d="M55 362c9 8 22 8 31 0l15 -16l27 -27l15 -15c9 -9 9 -22 0 -31l-15 -15v0v0l-11 -11c-2 -2 -4 -4 -6 -5v0l1 1l-3 -3s-23 -24 34 -81v0h1c57 -57 80 -34 80 -34l3 3c0 1 -1 -1 -1 -1v0c2 2 3 4 5 6l11 11v0v0l15 15c9 9 22 9 31 0l15 -15l27 -27l15 -15c9 -9 9 -22 0 -31
c-9 -10 -17 -18 -24 -24l-2 -2c-2 -2 -3 -3 -5 -4c-3 -3 -6 -5 -9 -7c-3 -3 -7 -7 -13 -10h-1v0c-28 -14 -89 -21 -196 86l-1 1v0c-107 107 -100 169 -86 197v0v0c3 6 6 11 9 14c2 3 5 5 8 8c1 2 2 3 4 5l1 2c6 7 15 16 25 25z" />
    <glyph glyph-name="uniE0C2" unicode="&#xe0c2;" horiz-adv-x="506" 
d="M297 358l209 -109l-116 -223l-95 49l15 4l-20 75l105 -55l71 136l-157 81l-42 -80l-11 42zM0 270l227 62l66 -242l-227 -62zM77 100l170 47l-40 147l-171 -46z" />
    <glyph glyph-name="uniE0AF" unicode="&#xe0af;" horiz-adv-x="115" 
d="M0 261l115 -69l-115 -69v138z" />
    <glyph glyph-name="uniE0CA" unicode="&#xe0ca;" horiz-adv-x="263" 
d="M254 281c5 -5 9 -12 9 -20s-4 -16 -9 -21l-134 -134l-3 -3c-5 -5 -13 -8 -22 -8c-8 0 -14 3 -19 7c-2 1 -4 2 -6 4l-62 62c-5 5 -8 12 -8 20s3 15 8 20c11 11 30 11 41 0l43 -42c1 -1 4 -3 8 1l114 114c11 11 29 11 40 0z" />
    <glyph glyph-name="uniE0CC" unicode="&#xe0cc;" horiz-adv-x="135" 
d="M67 277c-24 0 -45 20 -45 44s21 44 45 44s44 -20 44 -44s-20 -44 -44 -44zM119 61c9 0 16 -8 16 -17v-8c0 -9 -7 -17 -16 -17h-33h-38h-31c-9 0 -17 8 -17 17v8c0 9 8 17 17 17h15v129h-15c-9 0 -17 7 -17 16v9c0 9 8 17 17 17h31h35h3c9 0 16 -8 16 -17v-154h17z" />
    <glyph glyph-name="uniE0CB" unicode="&#xe0cb;" horiz-adv-x="193" 
d="M133 193l53 -53c10 -10 10 -26 0 -36c-5 -5 -12 -7 -18 -7s-13 2 -18 7l-53 53l-54 -53c-5 -5 -12 -7 -18 -7s-13 2 -18 7c-10 10 -10 26 0 36l54 53l-54 54c-10 10 -10 26 0 36s26 10 36 0l54 -54l53 54c10 10 26 10 36 0s10 -26 0 -36z" />
    <glyph glyph-name="uniE047" unicode="&#xe047;" horiz-adv-x="380" 
d="M163 121c25 0 46 -21 46 -46s-21 -45 -46 -45s-45 20 -45 45s20 46 45 46zM355 178h-222l-26 131h273zM238 75c0 30 16 46 46 46s46 -16 46 -46s-16 -45 -46 -45s-46 15 -46 45zM89 322l32 -157h235v-31h-261l-6 31l-33 157h-56v31h82z" />
    <glyph glyph-name="uniE0C1" unicode="&#xe0c1;" horiz-adv-x="362" 
d="M266 307l31 -33l56 55c16 -31 11 -68 -15 -94c-23 -23 -56 -29 -84 -18l-99 -98c10 -29 4 -62 -19 -85c-26 -25 -64 -30 -94 -14l53 53l-31 33l-54 -54c-17 31 -12 70 14 96c23 23 57 30 86 18l98 97c-11 29 -5 63 18 86c26 26 65 30 95 13z" />
    <glyph glyph-name="uniE0B2" unicode="&#xe0b2;" 
d="M176 368c97 0 175 -79 175 -176s-78 -176 -175 -176s-176 79 -176 176s79 176 176 176zM27 179c2 -20 7 -38 16 -55h48c-4 17 -6 35 -7 55h-57zM189 286h38c-2 5 -5 10 -7 15c-9 19 -20 32 -31 38v-53zM235 261h-46v-56h53c-1 20 -3 39 -7 56zM163 339
c-11 -6 -23 -19 -32 -38l-6 -15h38v53zM163 261h-46c-4 -17 -6 -36 -7 -56h53v56zM84 205c1 20 3 38 7 55h-48c-9 -17 -14 -35 -16 -55h57zM110 179c1 -20 3 -38 7 -55h46v55h-53zM163 98h-38l6 -15c9 -19 21 -32 32 -38v53zM189 45c11 6 22 19 31 38c2 5 5 10 7 15h-38v-53
zM189 124h46c4 17 6 35 7 55h-53v-55zM268 179c-1 -20 -3 -38 -7 -55h48c9 17 14 35 16 55h-57zM268 205h57c-2 20 -7 38 -16 55h-48c4 -17 6 -35 7 -55zM292 286c-15 19 -36 34 -59 44c8 -12 16 -27 21 -44h38zM118 330c-23 -10 -43 -25 -58 -44h38c5 17 12 32 20 44z
M60 98c15 -19 35 -34 58 -44c-8 12 -15 27 -20 44h-38zM233 54c23 10 44 25 59 44h-38c-5 -17 -13 -32 -21 -44z" />
    <glyph glyph-name="uniE0C3" unicode="&#xe0c3;" horiz-adv-x="357" 
d="M225 191l122 -122c13 -12 13 -33 0 -45c-6 -6 -15 -9 -23 -9s-17 3 -23 9l-122 122l-124 -124c-6 -6 -15 -9 -23 -9s-17 3 -23 9c-13 12 -13 33 0 45l125 124l-124 124c-13 12 -13 33 0 45s32 12 45 0l124 -124l123 122c13 12 32 12 45 0s13 -33 0 -45z" />
  </font>
</defs>
</svg>
